<svg xmlns="http://www.w3.org/2000/svg" xmlns:xlink="http://www.w3.org/1999/xlink" width="500" zoomAndPan="magnify" viewBox="0 0 375 374.999991" height="500" preserveAspectRatio="xMidYMid meet" version="1.0"><defs><g/><clipPath id="f65788ec74"><path d="M 6.019531 80.636719 L 368.980469 80.636719 L 368.980469 244.699219 L 6.019531 244.699219 Z M 6.019531 80.636719 " clip-rule="nonzero"/></clipPath><clipPath id="ff713b349c"><path d="M 173 80.636719 L 350.511719 80.636719 L 350.511719 205 L 173 205 Z M 173 80.636719 " clip-rule="nonzero"/></clipPath></defs><rect x="-37.5" width="450" fill="#ffffff" y="-37.499999" height="449.999989" fill-opacity="1"/><rect x="-37.5" width="450" fill="#ffffff" y="-37.499999" height="449.999989" fill-opacity="1"/><g clip-path="url(#f65788ec74)"><path fill="#fbecff" d="M 32.875 244.683594 C 18.042969 244.683594 6.019531 232.660156 6.019531 217.828125 L 6.019531 107.714844 C 6.019531 92.878906 18.042969 80.855469 32.875 80.855469 L 324.261719 80.855469 C 339.097656 80.855469 351.121094 92.878906 351.121094 107.714844 L 351.121094 222.394531 C 351.121094 231.535156 358.660156 240.445312 368.738281 244.167969 C 369.015625 244.269531 368.9375 244.683594 368.640625 244.683594 L 32.875 244.683594 " fill-opacity="1" fill-rule="nonzero"/></g><g clip-path="url(#ff713b349c)"><path fill="#ff3131" d="M 332.40625 80.59375 L 181.769531 80.59375 C 172.027344 80.59375 170.570312 85.191406 178.527344 90.8125 L 203.054688 108.125 C 201.597656 109.921875 200.378906 111.957031 199.453125 114.195312 L 197.339844 119.324219 L 206.132812 123.304688 L 208.199219 133.738281 L 209.777344 144.660156 L 195.929688 147.441406 L 196.929688 152.980469 C 197.507812 156.183594 198.628906 159.226562 200.253906 162.011719 C 203.617188 167.808594 208.875 171.96875 215.144531 173.746094 C 217.1875 174.292969 219.148438 174.5625 221.148438 174.5625 L 221.5 174.5625 C 225.789062 174.5625 230.019531 173.285156 233.738281 170.871094 C 236.746094 168.914062 239.230469 166.308594 241.074219 163.242188 C 241.785156 163.039062 242.507812 162.835938 243.238281 162.628906 C 246.707031 169.40625 253.484375 174.027344 261.253906 174.054688 L 264.570312 174.085938 C 271.816406 174.085938 278.230469 170.082031 281.925781 164.0625 C 284.148438 169.382812 288.957031 173.09375 294.46875 173.09375 L 294.671875 173.09375 C 294.796875 173.09375 294.925781 173.074219 295.054688 173.070312 L 335.648438 201.726562 C 343.609375 207.34375 350.125 203.972656 350.125 194.226562 L 350.125 98.308594 C 350.125 88.566406 342.152344 80.59375 332.40625 80.59375 Z M 264.574219 168.34375 L 264.558594 164.183594 C 264.5625 164.183594 264.566406 164.183594 264.574219 164.183594 Z M 264.574219 168.34375 " fill-opacity="1" fill-rule="nonzero"/></g><path fill="#ffffff" d="M 294.480469 129.578125 C 291.320312 129.523438 288.789062 126.890625 288.847656 123.699219 C 288.933594 120.554688 291.578125 118.019531 294.742188 118.082031 C 297.929688 118.179688 300.460938 120.78125 300.375 123.972656 C 300.289062 127.132812 297.644531 129.667969 294.480469 129.578125 Z M 294.683594 120.867188 C 293.046875 120.808594 291.667969 122.132812 291.636719 123.773438 C 291.609375 125.425781 292.902344 126.777344 294.542969 126.820312 C 296.179688 126.878906 297.558594 125.554688 297.585938 123.914062 C 297.644531 122.261719 296.324219 120.910156 294.683594 120.867188 Z M 294.683594 120.867188 " fill-opacity="1" fill-rule="nonzero"/><path fill="#ffffff" d="M 307.648438 140.976562 C 304.484375 140.917969 301.957031 138.261719 302.074219 135.113281 C 302.128906 131.921875 304.746094 129.433594 307.9375 129.492188 C 311.128906 129.578125 313.628906 132.195312 313.570312 135.371094 C 313.484375 138.578125 310.839844 141.046875 307.648438 140.976562 Z M 307.878906 132.25 C 306.238281 132.222656 304.890625 133.546875 304.832031 135.183594 C 304.804688 136.808594 306.097656 138.203125 307.734375 138.261719 C 309.34375 138.261719 310.753906 136.9375 310.78125 135.328125 C 310.839844 133.675781 309.515625 132.296875 307.878906 132.25 Z M 307.878906 132.25 " fill-opacity="1" fill-rule="nonzero"/><path fill="#ffffff" d="M 290.316406 140.242188 C 289.941406 140.257812 289.597656 140.074219 289.308594 139.785156 C 288.789062 139.222656 288.851562 138.347656 289.421875 137.816406 L 310.640625 118.453125 C 311.214844 117.9375 312.078125 117.964844 312.59375 118.542969 C 313.140625 119.085938 313.085938 120.007812 312.507812 120.496094 L 291.292969 139.886719 C 291.003906 140.101562 290.660156 140.242188 290.316406 140.242188 Z M 290.316406 140.242188 " fill-opacity="1" fill-rule="nonzero"/><path fill="#ffffff" d="M 294.597656 167.351562 C 290.144531 167.4375 286.433594 163.070312 286.347656 157.664062 C 286.230469 152.230469 289.796875 147.761719 294.28125 147.691406 C 298.734375 147.632812 302.445312 151.972656 302.53125 157.40625 C 302.585938 162.8125 299.054688 167.292969 294.597656 167.351562 Z M 294.339844 151.34375 C 291.925781 151.398438 289.941406 154.246094 289.996094 157.609375 C 290.054688 160.941406 292.125 163.703125 294.511719 163.703125 C 296.925781 163.671875 298.910156 160.796875 298.824219 157.464844 C 298.792969 154.128906 296.753906 151.3125 294.339844 151.34375 Z M 294.339844 151.34375 " fill-opacity="1" fill-rule="nonzero"/><path fill="#ffffff" d="M 309.835938 167.269531 L 306.152344 167.339844 L 305.867188 148.003906 L 317.363281 147.832031 L 317.453125 151.511719 L 309.574219 151.628906 Z M 309.835938 167.269531 " fill-opacity="1" fill-rule="nonzero"/><path fill="#ffffff" d="M 315.667969 159.546875 L 307.878906 159.675781 L 307.820312 155.984375 L 315.613281 155.882812 Z M 315.667969 159.546875 " fill-opacity="1" fill-rule="nonzero"/><path fill="#ffffff" d="M 323.054688 167.066406 L 319.40625 167.121094 L 319.117188 147.804688 L 330.617188 147.632812 L 330.675781 151.3125 L 322.824219 151.425781 Z M 323.054688 167.066406 " fill-opacity="1" fill-rule="nonzero"/><path fill="#ffffff" d="M 328.921875 159.335938 L 321.132812 159.460938 L 321.074219 155.796875 L 328.863281 155.652344 Z M 328.921875 159.335938 " fill-opacity="1" fill-rule="nonzero"/><path fill="#ffffff" d="M 264.5 168.34375 L 261.308594 168.316406 C 253.085938 168.289062 246.472656 161.058594 246.503906 152.234375 L 246.734375 122.394531 C 246.792969 113.597656 253.546875 106.46875 261.738281 106.496094 L 264.929688 106.523438 C 273.125 106.59375 279.789062 113.796875 279.703125 122.621094 L 279.503906 152.421875 C 279.417969 161.261719 272.722656 168.386719 264.5 168.34375 Z M 261.683594 116.398438 C 258.546875 116.382812 256.019531 119.097656 255.960938 122.476562 L 255.757812 152.289062 C 255.730469 155.609375 258.230469 158.382812 261.394531 158.398438 L 264.558594 158.441406 C 267.71875 158.441406 270.21875 155.738281 270.277344 152.40625 L 270.476562 122.5625 C 270.507812 119.203125 268.007812 116.457031 264.84375 116.441406 Z M 261.683594 116.398438 " fill-opacity="1" fill-rule="nonzero"/><path fill="#ffffff" d="M 236.039062 138.890625 C 235.292969 137.613281 234.429688 136.652344 233.679688 135.757812 C 233.480469 135.5 233.25 135.238281 233.050781 135.011719 C 235.492188 131.824219 237.59375 127.808594 237.621094 123.65625 C 237.679688 113.652344 230.03125 105.457031 220.601562 105.375 C 213.730469 105.359375 207.523438 109.6875 204.761719 116.382812 L 212.957031 120.089844 C 214.28125 116.871094 217.242188 114.859375 220.546875 114.886719 C 225.089844 114.886719 228.710938 118.8125 228.679688 123.597656 C 228.679688 125.554688 226.613281 128.917969 224.28125 131.160156 C 220.546875 130.800781 216.550781 131.183594 213.703125 131.675781 L 215.054688 141.03125 C 219.484375 140.300781 224.773438 140.300781 226.210938 141.078125 C 226.496094 141.449219 226.816406 141.796875 227.128906 142.167969 C 227.707031 142.800781 228.164062 143.351562 228.480469 143.878906 C 229.917969 146.339844 230.378906 149.183594 229.859375 151.886719 C 229.371094 154.503906 227.960938 156.6875 225.894531 158.039062 C 223.851562 159.375 221.410156 159.734375 218.964844 159.070312 C 216.433594 158.324219 214.25 156.585938 212.8125 154.128906 C 212.09375 152.921875 211.632812 151.597656 211.375 150.191406 L 202.578125 151.957031 C 203.039062 154.503906 203.929688 156.917969 205.222656 159.132812 C 207.835938 163.644531 211.921875 166.863281 216.636719 168.199219 C 218.1875 168.617188 219.710938 168.832031 221.292969 168.820312 C 224.570312 168.863281 227.730469 167.925781 230.605469 166.058594 C 234.804688 163.328125 237.621094 158.960938 238.628906 153.785156 C 239.601562 148.726562 238.683594 143.390625 236.039062 138.890625 Z M 236.039062 138.890625 " fill-opacity="1" fill-rule="nonzero"/><g fill="#000000" fill-opacity="1"><g transform="translate(16.274754, 143.369749)"><g><path d="M 22.703125 0 L 21.5 -14.953125 L 21.359375 -14.953125 L 16.1875 -0.15625 L 12.75 -0.15625 L 7.59375 -14.953125 L 7.4375 -14.953125 L 6.234375 0 L 0.484375 0 L 2.75 -25.234375 L 8.875 -25.234375 L 14.46875 -10.671875 L 20.0625 -25.234375 L 26.1875 -25.234375 L 28.453125 0 Z M 22.703125 0 "/></g></g></g><g fill="#000000" fill-opacity="1"><g transform="translate(45.206695, 143.369749)"><g><path d="M 3.3125 -1.859375 C 1.570312 -3.410156 0.703125 -5.398438 0.703125 -7.828125 C 0.703125 -10.253906 1.609375 -12.25 3.421875 -13.8125 C 5.242188 -15.375 7.488281 -16.15625 10.15625 -16.15625 C 12.789062 -16.15625 15.007812 -15.367188 16.8125 -13.796875 C 18.613281 -12.222656 19.515625 -10.234375 19.515625 -7.828125 C 19.515625 -5.421875 18.628906 -3.4375 16.859375 -1.875 C 15.097656 -0.320312 12.863281 0.453125 10.15625 0.453125 C 7.34375 0.453125 5.0625 -0.316406 3.3125 -1.859375 Z M 7.5 -10.484375 C 6.800781 -9.796875 6.453125 -8.910156 6.453125 -7.828125 C 6.453125 -6.742188 6.785156 -5.859375 7.453125 -5.171875 C 8.128906 -4.492188 9.019531 -4.15625 10.125 -4.15625 C 11.1875 -4.15625 12.054688 -4.5 12.734375 -5.1875 C 13.421875 -5.882812 13.765625 -6.765625 13.765625 -7.828125 C 13.765625 -8.910156 13.410156 -9.796875 12.703125 -10.484375 C 12.003906 -11.179688 11.144531 -11.53125 10.125 -11.53125 C 9.082031 -11.53125 8.207031 -11.179688 7.5 -10.484375 Z M 7.5 -10.484375 "/></g></g></g><g fill="#000000" fill-opacity="1"><g transform="translate(65.422351, 143.369749)"><g><path d="M 1.828125 0 L 1.828125 -15.6875 L 7.25 -15.6875 L 7.25 -14.046875 L 7.3125 -14.046875 C 8.71875 -15.453125 10.21875 -16.15625 11.8125 -16.15625 C 12.582031 -16.15625 13.347656 -16.050781 14.109375 -15.84375 C 14.878906 -15.644531 15.613281 -15.328125 16.3125 -14.890625 C 17.019531 -14.460938 17.59375 -13.859375 18.03125 -13.078125 C 18.46875 -12.296875 18.6875 -11.382812 18.6875 -10.34375 L 18.6875 0 L 13.28125 0 L 13.28125 -8.875 C 13.28125 -9.6875 13.019531 -10.398438 12.5 -11.015625 C 11.976562 -11.628906 11.300781 -11.9375 10.46875 -11.9375 C 9.644531 -11.9375 8.898438 -11.617188 8.234375 -10.984375 C 7.578125 -10.347656 7.25 -9.644531 7.25 -8.875 L 7.25 0 Z M 1.828125 0 "/></g></g></g><g fill="#000000" fill-opacity="1"><g transform="translate(85.638007, 143.369749)"><g><path d="M 8.65625 -16.15625 C 9.550781 -16.15625 10.4375 -16.050781 11.3125 -15.84375 C 12.195312 -15.644531 12.851562 -15.441406 13.28125 -15.234375 L 13.921875 -14.9375 L 12.140625 -11.375 C 10.921875 -12.03125 9.757812 -12.359375 8.65625 -12.359375 C 8.039062 -12.359375 7.601562 -12.289062 7.34375 -12.15625 C 7.09375 -12.03125 6.96875 -11.78125 6.96875 -11.40625 C 6.96875 -11.320312 6.976562 -11.238281 7 -11.15625 C 7.019531 -11.082031 7.0625 -11.007812 7.125 -10.9375 C 7.1875 -10.863281 7.242188 -10.800781 7.296875 -10.75 C 7.347656 -10.695312 7.429688 -10.640625 7.546875 -10.578125 C 7.671875 -10.523438 7.769531 -10.484375 7.84375 -10.453125 C 7.914062 -10.421875 8.03125 -10.375 8.1875 -10.3125 C 8.351562 -10.25 8.476562 -10.203125 8.5625 -10.171875 C 8.644531 -10.140625 8.78125 -10.09375 8.96875 -10.03125 C 9.164062 -9.96875 9.316406 -9.925781 9.421875 -9.90625 C 10.054688 -9.726562 10.609375 -9.523438 11.078125 -9.296875 C 11.546875 -9.078125 12.039062 -8.769531 12.5625 -8.375 C 13.082031 -7.988281 13.484375 -7.5 13.765625 -6.90625 C 14.054688 -6.320312 14.203125 -5.648438 14.203125 -4.890625 C 14.203125 -1.328125 11.722656 0.453125 6.765625 0.453125 C 5.640625 0.453125 4.570312 0.28125 3.5625 -0.0625 C 2.550781 -0.40625 1.820312 -0.75 1.375 -1.09375 L 0.703125 -1.65625 L 2.90625 -5.359375 C 3.070312 -5.210938 3.285156 -5.039062 3.546875 -4.84375 C 3.816406 -4.65625 4.296875 -4.390625 4.984375 -4.046875 C 5.679688 -3.710938 6.285156 -3.546875 6.796875 -3.546875 C 7.910156 -3.546875 8.46875 -3.925781 8.46875 -4.6875 C 8.46875 -5.03125 8.328125 -5.296875 8.046875 -5.484375 C 7.765625 -5.679688 7.28125 -5.898438 6.59375 -6.140625 C 5.90625 -6.390625 5.367188 -6.617188 4.984375 -6.828125 C 4.003906 -7.335938 3.226562 -7.910156 2.65625 -8.546875 C 2.09375 -9.191406 1.8125 -10.046875 1.8125 -11.109375 C 1.8125 -12.691406 2.425781 -13.925781 3.65625 -14.8125 C 4.882812 -15.707031 6.550781 -16.15625 8.65625 -16.15625 Z M 8.65625 -16.15625 "/></g></g></g><g fill="#000000" fill-opacity="1"><g transform="translate(100.685065, 143.369749)"><g><path d="M 3.3125 -1.859375 C 1.570312 -3.410156 0.703125 -5.398438 0.703125 -7.828125 C 0.703125 -10.253906 1.609375 -12.25 3.421875 -13.8125 C 5.242188 -15.375 7.488281 -16.15625 10.15625 -16.15625 C 12.789062 -16.15625 15.007812 -15.367188 16.8125 -13.796875 C 18.613281 -12.222656 19.515625 -10.234375 19.515625 -7.828125 C 19.515625 -5.421875 18.628906 -3.4375 16.859375 -1.875 C 15.097656 -0.320312 12.863281 0.453125 10.15625 0.453125 C 7.34375 0.453125 5.0625 -0.316406 3.3125 -1.859375 Z M 7.5 -10.484375 C 6.800781 -9.796875 6.453125 -8.910156 6.453125 -7.828125 C 6.453125 -6.742188 6.785156 -5.859375 7.453125 -5.171875 C 8.128906 -4.492188 9.019531 -4.15625 10.125 -4.15625 C 11.1875 -4.15625 12.054688 -4.5 12.734375 -5.1875 C 13.421875 -5.882812 13.765625 -6.765625 13.765625 -7.828125 C 13.765625 -8.910156 13.410156 -9.796875 12.703125 -10.484375 C 12.003906 -11.179688 11.144531 -11.53125 10.125 -11.53125 C 9.082031 -11.53125 8.207031 -11.179688 7.5 -10.484375 Z M 7.5 -10.484375 "/></g></g></g><g fill="#000000" fill-opacity="1"><g transform="translate(120.900721, 143.369749)"><g><path d="M 3.3125 -1.859375 C 1.570312 -3.410156 0.703125 -5.398438 0.703125 -7.828125 C 0.703125 -10.253906 1.609375 -12.25 3.421875 -13.8125 C 5.242188 -15.375 7.488281 -16.15625 10.15625 -16.15625 C 12.789062 -16.15625 15.007812 -15.367188 16.8125 -13.796875 C 18.613281 -12.222656 19.515625 -10.234375 19.515625 -7.828125 C 19.515625 -5.421875 18.628906 -3.4375 16.859375 -1.875 C 15.097656 -0.320312 12.863281 0.453125 10.15625 0.453125 C 7.34375 0.453125 5.0625 -0.316406 3.3125 -1.859375 Z M 7.5 -10.484375 C 6.800781 -9.796875 6.453125 -8.910156 6.453125 -7.828125 C 6.453125 -6.742188 6.785156 -5.859375 7.453125 -5.171875 C 8.128906 -4.492188 9.019531 -4.15625 10.125 -4.15625 C 11.1875 -4.15625 12.054688 -4.5 12.734375 -5.1875 C 13.421875 -5.882812 13.765625 -6.765625 13.765625 -7.828125 C 13.765625 -8.910156 13.410156 -9.796875 12.703125 -10.484375 C 12.003906 -11.179688 11.144531 -11.53125 10.125 -11.53125 C 9.082031 -11.53125 8.207031 -11.179688 7.5 -10.484375 Z M 7.5 -10.484375 "/></g></g></g><g fill="#000000" fill-opacity="1"><g transform="translate(141.116377, 143.369749)"><g><path d="M 1.828125 0 L 1.828125 -15.6875 L 7.25 -15.6875 L 7.25 -14.046875 L 7.3125 -14.046875 C 8.71875 -15.453125 10.21875 -16.15625 11.8125 -16.15625 C 12.582031 -16.15625 13.347656 -16.050781 14.109375 -15.84375 C 14.878906 -15.644531 15.613281 -15.328125 16.3125 -14.890625 C 17.019531 -14.460938 17.59375 -13.859375 18.03125 -13.078125 C 18.46875 -12.296875 18.6875 -11.382812 18.6875 -10.34375 L 18.6875 0 L 13.28125 0 L 13.28125 -8.875 C 13.28125 -9.6875 13.019531 -10.398438 12.5 -11.015625 C 11.976562 -11.628906 11.300781 -11.9375 10.46875 -11.9375 C 9.644531 -11.9375 8.898438 -11.617188 8.234375 -10.984375 C 7.578125 -10.347656 7.25 -9.644531 7.25 -8.875 L 7.25 0 Z M 1.828125 0 "/></g></g></g><g fill="#000000" fill-opacity="1"><g transform="translate(161.343344, 143.369749)"><g/></g></g><g fill="#000000" fill-opacity="1"><g transform="translate(16.274754, 186.075299)"><g><path d="M 0.703125 -12.640625 C 0.703125 -16.285156 1.945312 -19.375 4.4375 -21.90625 C 6.925781 -24.4375 9.925781 -25.703125 13.4375 -25.703125 C 16.957031 -25.703125 19.953125 -24.441406 22.421875 -21.921875 C 24.890625 -19.398438 26.125 -16.304688 26.125 -12.640625 C 26.125 -8.941406 24.910156 -5.832031 22.484375 -3.3125 C 20.054688 -0.800781 17.039062 0.453125 13.4375 0.453125 C 9.738281 0.453125 6.691406 -0.789062 4.296875 -3.28125 C 1.898438 -5.78125 0.703125 -8.898438 0.703125 -12.640625 Z M 6.921875 -12.640625 C 6.921875 -11.304688 7.125 -10.09375 7.53125 -9 C 7.9375 -7.914062 8.648438 -6.992188 9.671875 -6.234375 C 10.691406 -5.484375 11.945312 -5.109375 13.4375 -5.109375 C 15.570312 -5.109375 17.1875 -5.84375 18.28125 -7.3125 C 19.375 -8.78125 19.921875 -10.554688 19.921875 -12.640625 C 19.921875 -14.691406 19.363281 -16.457031 18.25 -17.9375 C 17.132812 -19.414062 15.53125 -20.15625 13.4375 -20.15625 C 11.351562 -20.15625 9.742188 -19.414062 8.609375 -17.9375 C 7.484375 -16.457031 6.921875 -14.691406 6.921875 -12.640625 Z M 6.921875 -12.640625 "/></g></g></g><g fill="#000000" fill-opacity="1"><g transform="translate(43.096437, 186.075299)"><g><path d="M 2.75 -15.6875 L 2.75 -19.03125 C 2.769531 -21.375 3.320312 -23.25 4.40625 -24.65625 C 5.488281 -26.0625 6.988281 -26.765625 8.90625 -26.765625 C 9.71875 -26.765625 10.492188 -26.644531 11.234375 -26.40625 C 11.984375 -26.175781 12.519531 -25.941406 12.84375 -25.703125 L 13.375 -25.359375 L 11.46875 -21.53125 C 10.976562 -21.820312 10.4375 -21.96875 9.84375 -21.96875 C 9.175781 -21.96875 8.726562 -21.738281 8.5 -21.28125 C 8.28125 -20.820312 8.171875 -20.019531 8.171875 -18.875 L 8.171875 -15.6875 L 11.78125 -15.6875 L 11.78125 -11.5625 L 8.171875 -11.5625 L 8.171875 0 L 2.75 0 L 2.75 -11.5625 L 0.484375 -11.5625 L 0.484375 -15.6875 Z M 2.75 -15.6875 "/></g></g></g><g fill="#000000" fill-opacity="1"><g transform="translate(54.565228, 186.075299)"><g><path d="M 2.75 -15.6875 L 2.75 -19.03125 C 2.769531 -21.375 3.320312 -23.25 4.40625 -24.65625 C 5.488281 -26.0625 6.988281 -26.765625 8.90625 -26.765625 C 9.71875 -26.765625 10.492188 -26.644531 11.234375 -26.40625 C 11.984375 -26.175781 12.519531 -25.941406 12.84375 -25.703125 L 13.375 -25.359375 L 11.46875 -21.53125 C 10.976562 -21.820312 10.4375 -21.96875 9.84375 -21.96875 C 9.175781 -21.96875 8.726562 -21.738281 8.5 -21.28125 C 8.28125 -20.820312 8.171875 -20.019531 8.171875 -18.875 L 8.171875 -15.6875 L 11.78125 -15.6875 L 11.78125 -11.5625 L 8.171875 -11.5625 L 8.171875 0 L 2.75 0 L 2.75 -11.5625 L 0.484375 -11.5625 L 0.484375 -15.6875 Z M 2.75 -15.6875 "/></g></g></g><g fill="#000000" fill-opacity="1"><g transform="translate(66.034019, 186.075299)"><g><path d="M 17.71875 -7.09375 L 6.328125 -7.09375 C 6.328125 -6 6.679688 -5.1875 7.390625 -4.65625 C 8.109375 -4.125 8.890625 -3.859375 9.734375 -3.859375 C 10.609375 -3.859375 11.300781 -3.972656 11.8125 -4.203125 C 12.320312 -4.441406 12.898438 -4.90625 13.546875 -5.59375 L 17.46875 -3.640625 C 15.832031 -0.910156 13.117188 0.453125 9.328125 0.453125 C 6.960938 0.453125 4.929688 -0.351562 3.234375 -1.96875 C 1.546875 -3.59375 0.703125 -5.546875 0.703125 -7.828125 C 0.703125 -10.117188 1.546875 -12.078125 3.234375 -13.703125 C 4.929688 -15.335938 6.960938 -16.15625 9.328125 -16.15625 C 11.816406 -16.15625 13.84375 -15.4375 15.40625 -14 C 16.96875 -12.5625 17.75 -10.503906 17.75 -7.828125 C 17.75 -7.460938 17.738281 -7.21875 17.71875 -7.09375 Z M 6.484375 -10.09375 L 12.453125 -10.09375 C 12.328125 -10.90625 12.003906 -11.53125 11.484375 -11.96875 C 10.960938 -12.414062 10.296875 -12.640625 9.484375 -12.640625 C 8.585938 -12.640625 7.875 -12.40625 7.34375 -11.9375 C 6.8125 -11.46875 6.523438 -10.851562 6.484375 -10.09375 Z M 6.484375 -10.09375 "/></g></g></g><g fill="#000000" fill-opacity="1"><g transform="translate(84.475832, 186.075299)"><g><path d="M 1.828125 0 L 1.828125 -15.6875 L 7.25 -15.6875 L 7.25 -13.4375 L 7.3125 -13.4375 C 7.351562 -13.507812 7.414062 -13.609375 7.5 -13.734375 C 7.59375 -13.859375 7.789062 -14.070312 8.09375 -14.375 C 8.40625 -14.6875 8.734375 -14.960938 9.078125 -15.203125 C 9.429688 -15.453125 9.882812 -15.671875 10.4375 -15.859375 C 10.988281 -16.054688 11.546875 -16.15625 12.109375 -16.15625 C 12.703125 -16.15625 13.285156 -16.070312 13.859375 -15.90625 C 14.429688 -15.738281 14.847656 -15.578125 15.109375 -15.421875 L 15.546875 -15.171875 L 13.28125 -10.578125 C 12.601562 -11.148438 11.664062 -11.4375 10.46875 -11.4375 C 9.8125 -11.4375 9.25 -11.289062 8.78125 -11 C 8.3125 -10.71875 7.976562 -10.375 7.78125 -9.96875 C 7.59375 -9.5625 7.457031 -9.210938 7.375 -8.921875 C 7.289062 -8.640625 7.25 -8.421875 7.25 -8.265625 L 7.25 0 Z M 1.828125 0 "/></g></g></g><g fill="#000000" fill-opacity="1"><g transform="translate(99.706387, 186.075299)"><g/></g></g><g fill="#000000" fill-opacity="1"><g transform="translate(108.055662, 186.075299)"><g><path d="M 3.359375 -8.265625 L 2.625 -26.3125 L 8.046875 -26.3125 L 7.3125 -8.265625 Z M 5.328125 -6.546875 C 6.304688 -6.546875 7.132812 -6.203125 7.8125 -5.515625 C 8.5 -4.835938 8.84375 -4.007812 8.84375 -3.03125 C 8.84375 -2.070312 8.5 -1.25 7.8125 -0.5625 C 7.132812 0.113281 6.304688 0.453125 5.328125 0.453125 C 4.367188 0.453125 3.546875 0.113281 2.859375 -0.5625 C 2.171875 -1.25 1.828125 -2.070312 1.828125 -3.03125 C 1.828125 -4.007812 2.171875 -4.835938 2.859375 -5.515625 C 3.546875 -6.203125 4.367188 -6.546875 5.328125 -6.546875 Z M 5.328125 -6.546875 "/></g></g></g><g fill="#000000" fill-opacity="1"><g transform="translate(118.729287, 186.075299)"><g/></g></g><g fill="#000000" fill-opacity="1"><g transform="translate(127.078562, 186.075299)"><g><path d="M 21.234375 -25.234375 L 21.234375 -8.96875 C 21.234375 -5.863281 20.394531 -3.515625 18.71875 -1.921875 C 17.050781 -0.335938 14.601562 0.453125 11.375 0.453125 C 8.15625 0.453125 5.707031 -0.335938 4.03125 -1.921875 C 2.363281 -3.515625 1.53125 -5.863281 1.53125 -8.96875 L 1.53125 -25.234375 L 7.28125 -25.234375 L 7.28125 -10.640625 C 7.28125 -8.609375 7.597656 -7.191406 8.234375 -6.390625 C 8.878906 -5.597656 9.925781 -5.203125 11.375 -5.203125 C 12.820312 -5.203125 13.867188 -5.597656 14.515625 -6.390625 C 15.160156 -7.191406 15.484375 -8.609375 15.484375 -10.640625 L 15.484375 -25.234375 Z M 21.234375 -25.234375 "/></g></g></g><g fill="#000000" fill-opacity="1"><g transform="translate(149.832647, 186.075299)"><g><path d="M 17.984375 -13.75 C 19.453125 -12.144531 20.1875 -10.179688 20.1875 -7.859375 C 20.1875 -5.535156 19.453125 -3.566406 17.984375 -1.953125 C 16.515625 -0.347656 14.648438 0.453125 12.390625 0.453125 C 10.304688 0.453125 8.59375 -0.195312 7.25 -1.5 L 7.25 7.953125 L 1.828125 7.953125 L 1.828125 -15.6875 L 7.1875 -15.6875 L 7.1875 -13.921875 L 7.25 -13.921875 C 8.59375 -15.410156 10.304688 -16.15625 12.390625 -16.15625 C 14.648438 -16.15625 16.515625 -15.351562 17.984375 -13.75 Z M 13.375 -5.1875 C 14.082031 -5.882812 14.4375 -6.773438 14.4375 -7.859375 C 14.4375 -8.941406 14.097656 -9.820312 13.421875 -10.5 C 12.753906 -11.1875 11.867188 -11.53125 10.765625 -11.53125 C 9.703125 -11.53125 8.828125 -11.179688 8.140625 -10.484375 C 7.460938 -9.796875 7.125 -8.921875 7.125 -7.859375 C 7.125 -6.773438 7.472656 -5.882812 8.171875 -5.1875 C 8.878906 -4.5 9.742188 -4.15625 10.765625 -4.15625 C 11.804688 -4.15625 12.675781 -4.5 13.375 -5.1875 Z M 13.375 -5.1875 "/></g></g></g><g fill="#000000" fill-opacity="1"><g transform="translate(170.721147, 186.075299)"><g><path d="M 2.75 -15.6875 L 2.75 -21.53125 L 8.171875 -21.53125 L 8.171875 -15.6875 L 11.46875 -15.6875 L 11.46875 -11.5625 L 8.171875 -11.5625 L 8.171875 -6.578125 C 8.171875 -5.128906 8.578125 -4.40625 9.390625 -4.40625 C 9.597656 -4.40625 9.8125 -4.445312 10.03125 -4.53125 C 10.257812 -4.613281 10.4375 -4.691406 10.5625 -4.765625 L 10.734375 -4.890625 L 12.078125 -0.515625 C 10.921875 0.128906 9.597656 0.453125 8.109375 0.453125 C 7.085938 0.453125 6.207031 0.273438 5.46875 -0.078125 C 4.738281 -0.429688 4.1875 -0.910156 3.8125 -1.515625 C 3.4375 -2.117188 3.164062 -2.75 3 -3.40625 C 2.832031 -4.070312 2.75 -4.78125 2.75 -5.53125 L 2.75 -11.5625 L 0.484375 -11.5625 L 0.484375 -15.6875 Z M 2.75 -15.6875 "/></g></g></g><g fill="#000000" fill-opacity="1"><g transform="translate(182.801606, 186.075299)"><g><path d="M 3.3125 -1.859375 C 1.570312 -3.410156 0.703125 -5.398438 0.703125 -7.828125 C 0.703125 -10.253906 1.609375 -12.25 3.421875 -13.8125 C 5.242188 -15.375 7.488281 -16.15625 10.15625 -16.15625 C 12.789062 -16.15625 15.007812 -15.367188 16.8125 -13.796875 C 18.613281 -12.222656 19.515625 -10.234375 19.515625 -7.828125 C 19.515625 -5.421875 18.628906 -3.4375 16.859375 -1.875 C 15.097656 -0.320312 12.863281 0.453125 10.15625 0.453125 C 7.34375 0.453125 5.0625 -0.316406 3.3125 -1.859375 Z M 7.5 -10.484375 C 6.800781 -9.796875 6.453125 -8.910156 6.453125 -7.828125 C 6.453125 -6.742188 6.785156 -5.859375 7.453125 -5.171875 C 8.128906 -4.492188 9.019531 -4.15625 10.125 -4.15625 C 11.1875 -4.15625 12.054688 -4.5 12.734375 -5.1875 C 13.421875 -5.882812 13.765625 -6.765625 13.765625 -7.828125 C 13.765625 -8.910156 13.410156 -9.796875 12.703125 -10.484375 C 12.003906 -11.179688 11.144531 -11.53125 10.125 -11.53125 C 9.082031 -11.53125 8.207031 -11.179688 7.5 -10.484375 Z M 7.5 -10.484375 "/></g></g></g></svg>